<?xml version="1.0" encoding="utf-8"?>
<!-- Generator: Adobe Illustrator 15.0.2, SVG Export Plug-In . SVG Version: 6.00 Build 0)  -->
<!DOCTYPE svg PUBLIC "-//W3C//DTD SVG 1.1//EN" "http://www.w3.org/Graphics/SVG/1.1/DTD/svg11.dtd">
<svg version="1.1" id="Layer_1" xmlns="http://www.w3.org/2000/svg" xmlns:xlink="http://www.w3.org/1999/xlink" x="0px" y="0px"
	 width="200.637px" height="212.797px" viewBox="28.35 28.351 200.637 212.797"
	 enable-background="new 28.35 28.351 200.637 212.797" xml:space="preserve">
<g>
	<g>
		<defs>
			<rect id="SVGID_1_" width="257.336" height="269.498"/>
		</defs>
		<clipPath id="SVGID_2_">
			<use xlink:href="#SVGID_1_"  overflow="visible"/>
		</clipPath>
		<path clip-path="url(#SVGID_2_)" d="M177.674,159.729c1.207,0,1.884,0.842,1.884,2.379c0,1.438-0.692,2.297-1.884,2.297
			c-1.189,0-1.866-0.858-1.866-2.346C175.808,160.59,176.485,159.729,177.674,159.729 M177.674,157.862
			c-2.478,0-4.229,1.752-4.229,4.197c0,2.479,1.751,4.211,4.229,4.211c2.462,0,4.246-1.732,4.246-4.146
			C181.92,159.599,180.204,157.862,177.674,157.862 M172.256,158.179h-1.438v-2.529h-2.347v2.529h-1.123v1.651h1.123v3.634
			c0,1.239,0.101,1.669,0.463,2.064c0.349,0.379,0.858,0.529,1.884,0.529h1.438v-1.769h-0.842c-0.545,0-0.596-0.101-0.596-1.354
			v-3.104h1.438V158.179z M166.111,160.474c-0.198-1.685-1.454-2.609-3.502-2.609c-2.114,0-3.403,0.975-3.403,2.576
			c0,1.272,0.678,1.916,2.428,2.297l1.455,0.33c0.627,0.148,0.893,0.363,0.893,0.728c0,0.463-0.496,0.776-1.223,0.776
			c-0.941,0-1.438-0.363-1.57-1.106h-2.195c0.131,1.769,1.502,2.808,3.717,2.808c2.213,0,3.584-1.057,3.584-2.742
			c0-0.643-0.215-1.237-0.594-1.602c-0.349-0.363-0.843-0.578-1.818-0.777l-1.469-0.313c-0.744-0.165-0.977-0.314-0.977-0.611
			c0-0.396,0.445-0.66,1.123-0.66c0.777,0,1.257,0.313,1.355,0.908h2.196V160.474z M157.256,155.039h-2.346v1.933h2.346V155.039z
			 M157.256,158.079h-2.346v7.979h2.346V158.079z M149.096,159.765c1.074,0,1.719,0.891,1.719,2.328c0,1.389-0.678,2.28-1.702,2.28
			c-1.058,0-1.719-0.894-1.719-2.313C147.394,160.655,148.055,159.765,149.096,159.765 M145.131,158.079v10.506h2.346v-3.172
			c0.661,0.611,1.271,0.857,2.146,0.857c2.099,0,3.504-1.685,3.504-4.229c0-2.479-1.422-4.18-3.52-4.18
			c-0.99,0-1.57,0.297-2.247,1.156l0.065-0.94L145.131,158.079L145.131,158.079z M139.299,159.729c1.205,0,1.884,0.842,1.884,2.379
			c0,1.438-0.692,2.297-1.884,2.297c-1.188,0-1.866-0.858-1.866-2.346C137.433,160.59,138.11,159.729,139.299,159.729
			 M139.299,157.862c-2.479,0-4.229,1.752-4.229,4.197c0,2.479,1.751,4.211,4.229,4.211c2.462,0,4.246-1.732,4.246-4.146
			C143.545,159.599,141.827,157.862,139.299,157.862 M133.484,155.039h-2.347v1.933h2.347V155.039z M133.484,158.079h-2.347v7.979
			h2.347V158.079z M128.908,155.039h-2.346v11.019h2.346V155.039z M122.813,158.079l-1.041,3.602
			c-0.182,0.709-0.314,1.254-0.413,1.783l-0.099-0.314c-0.182-0.66-0.182-0.676-0.413-1.42l-1.173-3.649h-2.511l2.627,6.706
			c0.28,0.693,0.297,0.742,0.297,1.023c0,0.694-0.38,1.008-1.206,1.008h-0.694v1.769h1.371c1.784,0,2.164-0.33,2.908-2.461
			l2.775-8.045L122.813,158.079L122.813,158.079z M116.023,160.92h-5.392v2.114h5.392V160.92z M104.767,159.729
			c1.206,0,1.883,0.842,1.883,2.379c0,1.438-0.694,2.297-1.883,2.297c-1.19,0-1.867-0.858-1.867-2.346
			C102.9,160.59,103.577,159.729,104.767,159.729 M104.767,157.862c-2.478,0-4.23,1.752-4.23,4.197c0,2.479,1.752,4.211,4.23,4.211
			c2.461,0,4.245-1.732,4.245-4.146C109.012,159.599,107.294,157.862,104.767,157.862 M99.497,158.179H98.06v-2.529h-2.346v2.529
			H94.59v1.651h1.124v3.634c0,1.239,0.099,1.669,0.462,2.064c0.347,0.379,0.859,0.529,1.884,0.529h1.437v-1.769h-0.843
			c-0.545,0-0.594-0.101-0.594-1.354v-3.104h1.437V158.179L99.497,158.179z M93.137,155.039h-2.346v11.019h2.346V155.039z
			 M86.512,163.479c-0.38,0.678-0.942,1.008-1.718,1.008c-0.727,0-1.189-0.313-1.189-0.842c0-0.479,0.363-0.76,1.206-0.959
			l0.842-0.182c0.397-0.083,0.611-0.148,0.859-0.248V163.479z M83.803,160.59c0.099-0.646,0.561-0.959,1.404-0.959
			c0.776,0,1.239,0.281,1.239,0.744c0,0.313-0.182,0.462-0.71,0.545l-1.272,0.216c-2.231,0.362-3.172,1.139-3.172,2.625
			c0,1.504,1.173,2.512,2.924,2.512c0.958,0,1.503-0.199,2.296-0.842c0.083,0.297,0.083,0.346,0.182,0.627h2.395
			c-0.264-0.396-0.297-0.512-0.297-1.371v-3.668c0-1.188-0.215-1.816-0.793-2.328c-0.628-0.563-1.553-0.844-2.759-0.844
			c-2.247,0-3.387,0.893-3.535,2.743H83.803L83.803,160.59z M76.65,161.812h-2.495l1.338-4.312L76.65,161.812z M77.195,163.845
			l0.595,2.213h2.808l-3.502-11.019h-3.089l-3.85,11.019h2.693l0.694-2.213H77.195z"/>
	</g>
	<g>
		<defs>
			<rect id="SVGID_3_" width="257.336" height="269.498"/>
		</defs>
		<clipPath id="SVGID_4_">
			<use xlink:href="#SVGID_3_"  overflow="visible"/>
		</clipPath>
		<path clip-path="url(#SVGID_4_)" fill="#9E9A97" d="M163.034,191.146h-2.348v4.494c0,0.793-0.032,0.975-0.248,1.256
			c-0.215,0.297-0.577,0.463-1.008,0.463c-0.43,0-0.809-0.166-1.023-0.463c-0.216-0.281-0.248-0.479-0.248-1.256v-4.494h-2.347
			v5.006c0,1.141,0.216,1.818,0.761,2.363c0.528,0.527,1.289,0.825,2.114,0.825c0.976,0,1.554-0.298,2.114-1.091v0.875h2.23v-7.979
			H163.034z M153.583,188.106h-2.346v11.02h2.346V188.106z M148.991,191.146h-2.347v4.494c0,0.793-0.032,0.975-0.248,1.256
			c-0.215,0.297-0.577,0.463-1.008,0.463c-0.429,0-0.81-0.166-1.022-0.463c-0.216-0.281-0.248-0.479-0.248-1.256v-4.494h-2.347
			v5.006c0,1.141,0.215,1.818,0.761,2.363c0.527,0.527,1.288,0.825,2.113,0.825c0.977,0,1.555-0.298,2.115-1.091v0.875h2.23V191.146
			L148.991,191.146z M135.939,192.799c1.206,0,1.884,0.843,1.884,2.38c0,1.436-0.693,2.295-1.884,2.295
			c-1.188,0-1.866-0.859-1.866-2.346C134.073,193.657,134.75,192.799,135.939,192.799 M135.939,190.933
			c-2.478,0-4.229,1.752-4.229,4.195c0,2.479,1.752,4.213,4.229,4.213c2.462,0,4.246-1.734,4.246-4.146
			C140.186,192.666,138.467,190.933,135.939,190.933 M128.159,194.187l3.041-3.039h-2.908l-2.445,2.742v-5.781H123.5v11.018h2.346
			v-2.658l0.76-0.744l1.983,3.402h2.875L128.159,194.187z M118.974,196.549c-0.38,0.679-0.942,1.009-1.718,1.009
			c-0.727,0-1.19-0.314-1.19-0.843c0-0.479,0.364-0.761,1.206-0.96l0.843-0.182c0.396-0.082,0.611-0.146,0.859-0.247V196.549z
			 M116.265,193.657c0.099-0.645,0.561-0.959,1.404-0.959c0.776,0,1.239,0.281,1.239,0.744c0,0.313-0.182,0.463-0.71,0.545
			l-1.272,0.216c-2.231,0.362-3.172,1.14-3.172,2.626c0,1.504,1.173,2.512,2.924,2.512c0.958,0,1.503-0.197,2.296-0.843
			c0.083,0.297,0.083,0.349,0.182,0.627h2.395c-0.264-0.396-0.297-0.513-0.297-1.371v-3.667c0-1.189-0.215-1.816-0.793-2.328
			c-0.628-0.563-1.553-0.844-2.759-0.844c-2.247,0-3.387,0.893-3.535,2.742H116.265z M106.815,194.169
			c0.182-0.925,0.777-1.451,1.685-1.451c0.909,0,1.454,0.526,1.553,1.451H106.815z M112.465,195.821
			c0-1.057-0.115-1.768-0.363-2.428c-0.578-1.586-1.867-2.461-3.585-2.461c-2.395,0-4.081,1.732-4.081,4.211
			c0,2.512,1.636,4.196,4.097,4.196c1.9,0,3.387-0.991,3.833-2.545h-2.379c-0.33,0.496-0.76,0.712-1.387,0.712
			c-1.008,0-1.652-0.596-1.801-1.688h5.666V195.821z M100.802,194.187l3.04-3.039h-2.908l-2.445,2.742v-5.781h-2.346v11.018h2.346
			v-2.658l0.76-0.744l1.983,3.402h2.874L100.802,194.187z M89.635,191.146v7.979h2.345v-2.246c0-1.553,0.083-2.297,0.314-2.823
			c0.265-0.597,0.925-0.959,1.735-0.959c0.165,0,0.314,0.016,0.595,0.049v-2.213c-1.702-0.018-2.297,0.346-2.759,1.635l0.066-1.42
			h-2.296V191.146z M83.721,192.799c1.205,0,1.883,0.843,1.883,2.38c0,1.436-0.694,2.295-1.883,2.295
			c-1.19,0-1.867-0.859-1.867-2.346C81.854,193.657,82.531,192.799,83.721,192.799 M83.721,190.933c-2.478,0-4.23,1.752-4.23,4.195
			c0,2.479,1.752,4.213,4.23,4.213c2.461,0,4.245-1.734,4.245-4.146C87.966,192.666,86.248,190.933,83.721,190.933 M75.857,194.187
			l3.04-3.039h-2.908l-2.445,2.742v-5.781h-2.346v11.018h2.346v-2.658l0.76-0.744l1.983,3.402h2.874L75.857,194.187z"/>
	</g>
	<g>
		<defs>
			<rect id="SVGID_5_" width="257.336" height="269.498"/>
		</defs>
		<clipPath id="SVGID_6_">
			<use xlink:href="#SVGID_5_"  overflow="visible"/>
		</clipPath>
		<path clip-path="url(#SVGID_6_)" fill="#9E9A97" d="M179.926,174.612v7.979h2.347v-4.479c0-0.692,0.083-1.022,0.347-1.319
			c0.248-0.28,0.612-0.431,1.008-0.431c0.414,0,0.761,0.164,0.959,0.463c0.197,0.298,0.248,0.611,0.248,1.421v4.345h2.347v-5.171
			c0-1.883-1.058-3.039-2.793-3.039c-0.825,0-1.306,0.214-2.181,1.007v-0.775H179.926z M175.4,180.015
			c-0.38,0.678-0.942,1.008-1.718,1.008c-0.729,0-1.189-0.313-1.189-0.842c0-0.479,0.363-0.761,1.207-0.959l0.842-0.182
			c0.396-0.082,0.61-0.148,0.858-0.247V180.015L175.4,180.015z M172.691,177.124c0.099-0.645,0.562-0.958,1.403-0.958
			c0.775,0,1.238,0.28,1.238,0.742c0,0.313-0.182,0.464-0.709,0.546l-1.271,0.215c-2.23,0.363-3.172,1.141-3.172,2.627
			c0,1.503,1.173,2.512,2.924,2.512c0.958,0,1.503-0.199,2.296-0.844c0.083,0.299,0.083,0.348,0.183,0.629h2.396
			c-0.265-0.396-0.297-0.513-0.297-1.371v-3.668c0-1.189-0.216-1.818-0.794-2.33c-0.629-0.561-1.553-0.842-2.76-0.842
			c-2.246,0-3.387,0.893-3.535,2.742H172.691z M166.231,177.651l3.04-3.039h-2.907l-2.445,2.742v-5.783h-2.346v11.021h2.346v-2.66
			l0.762-0.744l1.98,3.404h2.875L166.231,177.651z M159.342,171.571h-2.346v1.935h2.346V171.571z M159.342,174.612h-2.346v7.979
			h2.346V174.612z M154.768,171.571h-2.348v1.935h2.348V171.571z M154.768,174.612h-2.348v7.979h2.348V174.612z M142.938,174.612
			v7.979h2.346v-4.479c0-0.692,0.084-1.022,0.348-1.319c0.248-0.28,0.611-0.431,1.009-0.431c0.411,0,0.76,0.164,0.958,0.463
			c0.197,0.298,0.247,0.611,0.247,1.421v4.345h2.347v-5.171c0-1.883-1.059-3.039-2.792-3.039c-0.825,0-1.306,0.214-2.183,1.007
			v-0.775H142.938z M138.43,177.651l3.037-3.039h-2.905l-2.444,2.742v-5.783h-2.347v11.021h2.347v-2.66l0.76-0.744l1.981,3.404
			h2.874L138.43,177.651z M126.435,177.636c0.182-0.925,0.776-1.453,1.685-1.453c0.909,0,1.455,0.528,1.552,1.453H126.435z
			 M132.084,179.288c0-1.059-0.115-1.768-0.363-2.43c-0.577-1.586-1.865-2.461-3.583-2.461c-2.396,0-4.081,1.734-4.081,4.213
			c0,2.512,1.636,4.195,4.097,4.195c1.899,0,3.388-0.99,3.833-2.543h-2.379c-0.331,0.494-0.76,0.709-1.388,0.709
			c-1.008,0-1.652-0.595-1.8-1.685L132.084,179.288L132.084,179.288z M122.784,174.712h-1.437v-2.527h-2.346v2.527h-1.123v1.65
			h1.123v3.637c0,1.238,0.099,1.668,0.463,2.064c0.346,0.379,0.859,0.527,1.883,0.527h1.437v-1.768h-0.842
			c-0.546,0-0.595-0.1-0.595-1.354v-3.107h1.437V174.712z M115.4,171.688h-2.148v1.981h2.148V171.688z M111.98,171.688h-2.148v1.981
			h2.148V171.688z M112.608,176.265c1.206,0,1.883,0.844,1.883,2.379c0,1.438-0.694,2.297-1.883,2.297
			c-1.19,0-1.867-0.858-1.867-2.346C110.741,177.124,111.418,176.265,112.608,176.265 M112.608,174.397
			c-2.478,0-4.229,1.75-4.229,4.195c0,2.479,1.751,4.213,4.229,4.213c2.461,0,4.245-1.734,4.245-4.146
			C116.853,176.133,115.135,174.397,112.608,174.397 M104.744,177.651l3.04-3.039h-2.908l-2.444,2.742v-5.783h-2.346v11.021h2.346
			v-2.66l0.759-0.744l1.983,3.404h2.874L104.744,177.651z M92.982,171.571h-2.346v11.021h2.346v-4.479
			c0-0.842,0.05-1.073,0.314-1.338c0.248-0.264,0.628-0.414,1.024-0.414c0.397,0,0.727,0.15,0.925,0.414
			c0.215,0.281,0.265,0.578,0.265,1.338v4.479h2.346v-4.906c0-1.207-0.199-1.885-0.711-2.445c-0.512-0.545-1.255-0.858-2.048-0.858
			c-0.826,0-1.454,0.281-2.115,0.908V171.571L92.982,171.571z M87.547,171.688h-2.148v1.981h2.148V171.688z M84.127,171.688h-2.148
			v1.981h2.148V171.688z M86.027,180.015c-0.38,0.678-0.941,1.008-1.718,1.008c-0.727,0-1.189-0.313-1.189-0.842
			c0-0.479,0.363-0.761,1.206-0.959l0.842-0.182c0.397-0.082,0.611-0.148,0.859-0.247V180.015z M83.318,177.124
			c0.099-0.645,0.562-0.958,1.404-0.958c0.777,0,1.239,0.28,1.239,0.742c0,0.313-0.182,0.464-0.71,0.546l-1.272,0.215
			c-2.23,0.363-3.172,1.141-3.172,2.627c0,1.503,1.173,2.512,2.924,2.512c0.958,0,1.503-0.199,2.296-0.844
			c0.083,0.299,0.083,0.348,0.182,0.629h2.395c-0.264-0.396-0.297-0.513-0.297-1.371v-3.668c0-1.189-0.215-1.818-0.793-2.33
			c-0.628-0.561-1.553-0.842-2.759-0.842c-2.247,0-3.386,0.893-3.535,2.742H83.318z M79.469,175.024
			c-0.099-0.94-0.264-1.502-0.595-2.03c-0.677-1.106-1.966-1.669-3.799-1.669c-2.776,0-4.428,1.271-4.428,3.402
			c0,0.894,0.314,1.687,0.876,2.164c0.495,0.43,1.222,0.744,2.395,1.024l1.999,0.496c0.777,0.196,1.19,0.577,1.19,1.123
			c0,0.76-0.777,1.237-2.049,1.237c-1.503,0-2.214-0.562-2.263-1.815h-2.478c0.016,2.461,1.735,3.882,4.708,3.882
			c2.858,0,4.609-1.404,4.609-3.686c0-0.875-0.281-1.586-0.842-2.098c-0.529-0.496-1.206-0.793-2.429-1.09l-2.23-0.512
			c-0.677-0.166-1.008-0.48-1.008-0.941c0-0.695,0.711-1.123,1.884-1.123c1.239,0,1.982,0.545,1.982,1.453v0.182H79.469
			L79.469,175.024z"/>
	</g>
</g>
<path d="M113.79,113.454H96.66l8.565-24.742L113.79,113.454z M140.292,139.603L115.7,70.157H94.75l-24.592,69.446H87.61l4.253-12.29
	h26.723l4.254,12.29H140.292L140.292,139.603z"/>
<rect x="146.819" y="123.859" fill="#0089CF" width="15.742" height="15.744"/>
<polygon fill="#0089CF" points="163.065,94.217 163.065,70.157 146.348,70.157 146.348,94.217 149.758,118.277 158.997,118.277 "/>
</svg>
