<?xml version="1.0" standalone="no"?>
<!DOCTYPE svg PUBLIC "-//W3C//DTD SVG 20010904//EN"
 "http://www.w3.org/TR/2001/REC-SVG-20010904/DTD/svg10.dtd">
<svg version="1.0" xmlns="http://www.w3.org/2000/svg"
 width="288.000000pt" height="288.000000pt" viewBox="0 0 288.000000 288.000000"
 preserveAspectRatio="xMidYMid meet">

<g transform="translate(0.000000,288.000000) scale(0.100000,-0.100000)"
fill="#000000" stroke="none">
<path d="M0 1440 l0 -1440 1440 0 1440 0 0 1440 0 1440 -1440 0 -1440 0 0
-1440z m2522 1248 c55 -16 126 -83 154 -143 l24 -50 0 -1055 c0 -1039 -1
-1056 -21 -1100 -27 -60 -74 -107 -134 -136 l-50 -24 -1055 0 -1055 0 -50 24
c-60 28 -127 99 -143 154 -17 57 -17 2108 0 2166 15 51 108 147 158 163 52 16
2118 17 2172 1z"/>
<path d="M1956 2328 c-76 -11 -135 -53 -171 -123 -29 -56 -30 -65 -34 -208 -4
-190 11 -258 73 -322 82 -86 231 -98 337 -28 72 47 109 146 109 291 l0 52
-120 0 -120 0 0 -40 0 -40 70 0 c68 0 70 -1 70 -25 0 -13 -5 -47 -11 -74 -25
-118 -178 -161 -262 -73 -39 41 -49 102 -45 259 3 155 15 188 78 230 64 44
170 23 210 -42 l21 -33 39 16 c22 10 40 23 40 29 0 19 -69 92 -103 110 -40 20
-121 30 -181 21z"/>
<path d="M813 1893 l-203 -3 0 -24 c0 -21 7 -26 51 -35 125 -27 119 3 119
-607 0 -436 -2 -510 -15 -539 -18 -36 -48 -53 -111 -62 -39 -5 -44 -9 -44 -32
l0 -26 265 0 265 0 0 26 c0 25 -3 27 -63 33 -35 4 -74 13 -88 19 -41 21 -48
64 -48 306 l-1 224 46 -7 c26 -3 65 -6 88 -6 41 0 41 -1 86 -78 120 -207 277
-424 339 -466 62 -43 135 -66 211 -67 89 -1 110 6 110 37 0 18 -5 24 -22 24
-90 1 -239 143 -399 382 -60 88 -119 185 -119 193 0 3 6 5 13 5 8 0 41 14 74
30 74 37 145 111 181 188 23 49 27 70 27 152 0 83 -4 101 -27 145 -44 83 -115
139 -218 170 -62 19 -201 24 -517 18z m458 -114 c65 -31 104 -77 125 -145 44
-147 -19 -298 -148 -354 -58 -25 -185 -37 -262 -26 l-46 7 0 276 0 275 138 -4
c123 -3 143 -6 193 -29z"/>
</g>
</svg>
